<?xml version="1.0" encoding="iso-8859-1"?>
<!-- Generator: Adobe Illustrator 19.0.0, SVG Export Plug-In . SVG Version: 6.00 Build 0)  -->
<svg version="1.1" id="Capa_1" xmlns="http://www.w3.org/2000/svg" xmlns:xlink="http://www.w3.org/1999/xlink" x="0px" y="0px"
	 viewBox="0 0 511.999 511.999" style="enable-background:new 0 0 511.999 511.999;" xml:space="preserve">
<path style="fill:#3688C8;" d="M295.482,442.15l-35.095-35.039H41.164v51.034c0,9.334,7.567,16.901,16.901,16.901h215.862"/>
<polyline style="fill:#EAECF0;" points="308.596,353.893 308.596,84.577 41.164,84.577 41.164,407.11 260.387,407.11 "/>
<polyline style="fill:#ED7161;" points="248.38,342.378 248.38,311.119 101.38,311.119 101.38,373.561 225.785,373.561 "/>
<path style="fill:#EAC092;" d="M446.752,422.99c7.868-13.419,6.048-30.953-5.465-42.466c0,0-67.407-67.395-67.647-67.611
	c-7.105-6.398-18.101-6.589-25.116,0.042c-7.189,6.805-7.633,17.945-1.307,25.266l-7.162-6.982
	c-3.423-2.956-7.681-4.431-11.944-4.437c-4.695,0.006-9.383,1.793-12.963,5.372c-6.835,6.835-7.147,17.711-0.935,24.906l-0.09,0.09
	c-7.195-6.212-18.071-5.9-24.9,0.929c-6.835,6.835-7.147,17.712-0.935,24.906l-0.09,0.09c-0.126-0.114-0.264-0.204-0.396-0.312
	c0,0-56.6-56.588-56.846-56.81c-7.099-6.404-18.089-6.589-25.104,0.042c-7.369,6.961-7.651,18.479-0.857,25.776
	c0.018,0.03,0.042,0.054,0.066,0.078l90.422,90.279L282.4,455.231c-11.308,11.308-11.308,29.643,0,40.951
	c3.022,3.022,6.991,4.545,10.954,4.539c3.957,0,7.926-1.511,10.948-4.533l12.232-12.231c8.592-8.592,14.287-6.324,24.04-7.064
	l27.639,3.582c7.83,1.015,15.675-0.261,22.657-3.515l0.956,0.956L446.752,422.99L446.752,422.99z"/>
<rect x="414.6" y="420.957" transform="matrix(0.7071 0.7071 -0.7071 0.7071 452.6683 -169.2442)" style="fill:#9BE0FF;" width="32.06" height="81.679"/>
<path style="fill:#48C8F5;" d="M308.596,84.577H41.164V26.901C41.164,17.567,48.731,10,58.065,10h233.63
	c9.334,0,16.901,7.567,16.901,16.901V84.577z"/>
<path d="M477.907,437.175l-18.412-18.412c4.931-15.721,0.905-33.267-11.138-45.31c-67.592-67.58-67.765-67.735-68.026-67.971
	c-11.045-9.945-28.034-9.854-38.682,0.211c-3.554,3.364-6.054,7.427-7.479,11.771c-1.979-0.434-4.014-0.658-6.072-0.661
	c-3.29,0.004-6.493,0.564-9.502,1.634V26.9c0-14.833-12.068-26.9-26.901-26.9H58.065C43.232,0,31.164,12.067,31.164,26.9v431.244
	c0,14.833,12.068,26.9,26.901,26.9H265.04c1.674,6.835,5.186,13.105,10.289,18.207c4.817,4.817,11.208,7.469,17.987,7.469h0.039
	c6.809,0,13.208-2.649,18.02-7.461l12.231-12.232c3.86-3.86,5.432-3.876,11.279-3.938c1.605-0.017,3.392-0.035,5.38-0.154
	l26.663,3.456c6.465,0.837,12.982,0.431,19.233-1.171l19.85,19.85c1.953,1.952,4.512,2.929,7.071,2.929
	c2.559,0,5.119-0.977,7.071-2.929l57.754-57.754C481.812,447.412,481.812,441.08,477.907,437.175z M282.152,351.029
	c-2.078,2.077-3.767,4.411-5.064,6.905c-7.621-7.619-13.76-13.756-18.708-18.701v-28.114c0-5.522-4.477-10-10-10h-147
	c-5.523,0-10,4.478-10,10v62.442c0,5.523,4.477,10,10,10h121.267l13.57,13.549H51.164V94.577h247.432v248.421
	C292.556,343.762,286.73,346.451,282.152,351.029z M197.439,358.351c0.152,0.177,0.311,0.35,0.479,0.52
	c0.025,0.026,0.051,0.052,0.077,0.078l4.621,4.613H111.38V321.12h85.366C187.76,331.813,187.872,347.82,197.439,358.351z
	 M51.164,26.9c0-3.805,3.096-6.9,6.901-6.9h233.63c3.805,0,6.901,3.096,6.901,6.9v47.677H51.164V26.9z M51.164,458.145V417.11
	H256.25l25.085,25.045l-6.005,6.005c-4.772,4.772-8.153,10.564-9.94,16.885H58.065C54.26,465.045,51.164,461.949,51.164,458.145z
	 M369.499,470.558l-27.64-3.582c-0.676-0.088-5.528,0.099-7.186,0.115c-7.302,0.077-15.579,0.165-25.21,9.795l-12.232,12.231
	c-1.034,1.034-2.411,1.604-3.892,1.604h-0.008c-1.451,0-2.822-0.571-3.86-1.61c-3.58-3.58-5.552-8.34-5.552-13.403
	c0-0.134,0.002-0.268,0.004-0.402c0-0.003,0-0.006,0-0.009c0.104-4.91,2.064-9.51,5.548-12.993l13.082-13.082
	c4.068-4.068,4.434-9.708-0.006-14.148l-90.194-90.049c-0.013-0.015-0.027-0.029-0.04-0.044c-3.089-3.318-2.907-8.564,0.407-11.695
	c3.082-2.913,8.055-2.902,11.398-0.007c2.775,2.758,68.475,68.439,68.475,68.439c1.953,1.952,4.512,2.929,7.071,2.929
	c2.559,0,5.119-0.977,7.071-2.929c3.905-3.905,3.906-10.237,0-14.143l-10.154-10.155c-0.22-0.326-0.462-0.643-0.725-0.948
	c-2.822-3.269-2.63-8.232,0.438-11.3c3.01-3.011,7.851-3.246,11.121-0.577l11.15,11.15c1.953,1.952,4.512,2.929,7.071,2.929
	c2.559,0,5.119-0.977,7.071-2.929c3.905-3.905,3.905-10.237,0-14.143c0,0-10.745-10.848-10.924-11.056
	c-2.823-3.27-2.631-8.233,0.436-11.301c1.573-1.573,3.67-2.44,5.879-2.443c1.92,0.003,3.77,0.657,5.236,1.85l11.219,11.21
	c1.953,1.952,4.512,2.929,7.071,2.929c2.559,0,5.119-0.976,7.071-2.929c3.905-3.905,3.905-10.237,0-14.143
	c0,0-3.737-3.835-3.911-4.036c-2.901-3.357-2.631-8.394,0.61-11.462c3.079-2.91,8.056-2.9,11.412-0.003
	c3.095,3.077,45.107,45.077,67.41,67.376c7.774,7.774,9.542,19.669,4.481,29.309l-50.392,50.391
	c-0.563,0.149-1.119,0.349-1.66,0.602C381.282,470.397,375.354,471.316,369.499,470.558z M413.082,487.857l-8.527-8.527
	l43.612-43.612l8.527,8.527L413.082,487.857z"/>
<path d="M197.018,451.078h-44.277c-5.523,0-10-4.478-10-10s4.477-10,10-10h44.277c5.523,0,10,4.478,10,10
	C207.018,446.601,202.541,451.078,197.018,451.078z"/>
<path d="M251.3,57.29c-0.65,0-1.31-0.07-1.95-0.2s-1.27-0.32-1.87-0.57c-0.61-0.25-1.19-0.56-1.73-0.92
	c-0.55-0.359-1.06-0.78-1.52-1.24c-0.46-0.46-0.88-0.97-1.24-1.52c-0.36-0.54-0.67-1.12-0.92-1.73c-0.25-0.6-0.44-1.229-0.57-1.869
	c-0.13-0.641-0.2-1.301-0.2-1.95c0-0.65,0.07-1.311,0.2-1.96c0.13-0.63,0.32-1.261,0.57-1.87c0.25-0.601,0.56-1.18,0.92-1.72
	c0.36-0.551,0.78-1.061,1.24-1.521c2.32-2.32,5.77-3.39,9.02-2.74c0.64,0.13,1.27,0.32,1.87,0.57c0.61,0.25,1.191,0.56,1.73,0.92
	c0.55,0.37,1.06,0.79,1.52,1.25s0.88,0.97,1.24,1.521c0.36,0.54,0.67,1.119,0.92,1.72c0.25,0.609,0.45,1.24,0.57,1.87
	c0.13,0.649,0.2,1.309,0.2,1.96c0,2.63-1.07,5.21-2.93,7.069c-0.46,0.46-0.97,0.881-1.52,1.24c-0.539,0.36-1.12,0.67-1.73,0.92
	c-0.6,0.25-1.23,0.44-1.87,0.57C252.61,57.22,251.95,57.29,251.3,57.29z"/>
<path d="M214.151,57.289H98.46c-5.523,0-10-4.478-10-10s4.477-10,10-10h115.692c5.523,0,10,4.478,10,10
	C224.151,52.812,219.674,57.289,214.151,57.289z"/>
<path style="fill:#FFD36C;" d="M253.138,197.296c0.823,44.404-35.339,80.567-79.744,79.744
	c-41.848-0.776-75.996-34.923-76.772-76.772c-0.824-44.405,35.339-80.568,79.744-79.744
	C218.214,121.3,252.362,155.448,253.138,197.296z"/>
<path d="M174.904,287.054c-0.565,0-1.129-0.005-1.695-0.016c-22.84-0.423-44.388-9.625-60.674-25.91
	c-16.286-16.286-25.488-37.834-25.912-60.674c-0.449-24.218,8.728-46.979,25.839-64.09c17.111-17.112,39.85-26.313,64.089-25.839
	c22.84,0.424,44.388,9.626,60.674,25.911s25.488,37.833,25.911,60.674l0,0c0.449,24.217-8.726,46.978-25.838,64.089
	C220.586,277.911,198.486,287.054,174.904,287.054z M174.868,130.51c-18.245,0-35.338,7.07-48.264,19.996
	c-13.234,13.234-20.332,30.842-19.984,49.577c0.672,36.25,30.711,66.287,66.96,66.959c18.739,0.317,36.341-6.75,49.576-19.984
	c13.234-13.234,20.331-30.841,19.984-49.576l0,0c-0.672-36.249-30.709-66.287-66.959-66.96
	C175.744,130.514,175.304,130.51,174.868,130.51z"/>
<path d="M171.749,239.735c-13.19-0.457-23.964-7.55-23.964-14.871c0-3.89,3.298-9.609,7.476-9.609c4.616,0,8.354,6.749,16.488,8.236
	v-18.532c-10.113-4.003-21.984-8.922-21.984-23.564c0-14.528,10.333-21.507,21.984-23.223v-3.203c0-1.602,1.759-3.089,4.177-3.089
	c2.089,0,4.178,1.487,4.178,3.089v2.86c6.815,0.229,19.677,2.059,19.677,9.952c0,3.089-1.979,9.38-6.816,9.38
	c-3.628,0-5.717-3.66-12.861-4.232v16.702c10.003,3.889,21.655,9.266,21.655,24.709c0,14.184-8.794,22.765-21.655,24.938v3.317
	c0,1.602-2.089,3.089-4.178,3.089c-2.418,0-4.177-1.487-4.177-3.089L171.749,239.735L171.749,239.735z M172.849,186.885v-13.612
	c-4.947,1.029-7.035,3.66-7.035,6.405C165.814,182.995,168.671,185.054,172.849,186.885z M179.004,208.048v15.329
	c3.737-0.915,6.706-3.089,6.706-7.207C185.71,212.395,182.961,209.993,179.004,208.048z"/>
<g>
</g>
<g>
</g>
<g>
</g>
<g>
</g>
<g>
</g>
<g>
</g>
<g>
</g>
<g>
</g>
<g>
</g>
<g>
</g>
<g>
</g>
<g>
</g>
<g>
</g>
<g>
</g>
<g>
</g>
</svg>
