<?xml version="1.0" encoding="utf-8"?>
<!-- Generator: Adobe Illustrator 24.3.0, SVG Export Plug-In . SVG Version: 6.00 Build 0)  -->
<svg version="1.1" id="Layer_1" xmlns="http://www.w3.org/2000/svg" xmlns:xlink="http://www.w3.org/1999/xlink" x="0px" y="0px"
	 viewBox="0 0 512 512" style="enable-background:new 0 0 512 512;" xml:space="preserve">
<style type="text/css">
	.st0{fill:#EEF0F5;}
	.st1{fill:#DAE1EA;}
	.st2{fill:#FBDF63;}
	.st3{fill:#00C2F3;}
	.st4{fill:#1E90FF;}
	.st5{fill:#F9D11F;}
	.st6{fill:#FFB703;}
	.st7{fill:#FB8500;}
	.st8{fill:#B9CFDF;}
	.st9{fill:#90ABBD;}
	.st10{fill:#56788B;}
	.st11{fill:#415E6F;}
</style>
<g id="Group_40" transform="translate(-1552.039 -1025.468)">
	<path id="Path_64" class="st0" d="M2039.2,1287.1v96.4c0,10.9-8.9,19.8-19.8,19.8H1881v-275.4h69.7c10.9,0,19.8,8.9,19.8,19.8V1267
		h48.7C2030.2,1267,2039.2,1276,2039.2,1287.1C2039.2,1287.1,2039.2,1287.1,2039.2,1287.1z"/>
	<path id="Path_65" class="st1" d="M1923.6,1127.9h27c10.9,0,19.8,8.9,19.8,19.8V1267h-27v-119.3
		C1943.5,1136.8,1934.6,1127.9,1923.6,1127.9C1923.6,1127.9,1923.6,1127.9,1923.6,1127.9z"/>
	<path id="Path_66" class="st1" d="M2039.2,1287.1v96.4c0,10.9-8.9,19.8-19.8,19.8H1881v-27.4h17.9c6.4,0,12.3-3.1,16-8.3
		c16.1-22.1,45.1-30.6,70.6-20.4c10.1,3.9,21.5-1.1,25.4-11.2c0.9-2.3,1.3-4.7,1.3-7.2v-41.8c0-11.1-9-20.1-20.1-20.1h27
		C2030.2,1267,2039.2,1276,2039.2,1287.1z"/>
	<path id="Path_67" class="st2" d="M2039.2,1304.6v28.9h-26.5c-0.2,0-0.3,0-0.5,0c-8-0.3-14.2-7-13.9-15c0.3-7.6,6.4-13.7,13.9-13.9
		c0.2,0,0.3,0,0.5,0L2039.2,1304.6z"/>
	<path id="Path_68" class="st3" d="M1914.8,1156.6h55.6V1267h-55.6V1156.6z"/>
	<path id="Path_69" class="st4" d="M1943.5,1156.6h27V1267h-27V1156.6z"/>
	<path id="Path_70" class="st5" d="M2039.2,1304.6v28.9h-26.5c-0.2,0-0.3,0-0.5,0v-28.9c0.2,0,0.3,0,0.5,0L2039.2,1304.6z"/>
	<path id="Path_71" class="st6" d="M1881,1093.8v309.5h-301.8c-10.5,0-19-8.5-19-19c0,0,0,0,0,0v-290.5c0-10.5,8.5-19,19-19
		c0,0,0,0,0,0H1862C1872.5,1074.8,1881,1083.3,1881,1093.8z"/>
	<path id="Path_72" class="st7" d="M1881,1093.8v309.5h-301.8c-10.5,0-19-8.5-19-19c0,0,0,0,0,0v-27c-0.5,5.6,2,11,6.5,14.3
		c7.5,4.9,17.6,3.1,22.8-4.2c19.6-26.6,57.1-32.3,83.7-12.7c5.4,4,10.1,8.8,13.8,14.3c3.2,4.6,8.4,7.4,13.9,7.4h133.4
		c10.8,0,19.6-8.8,19.6-19.6v-262.9c0-10.5-8.5-19-19-19l0,0h27C1872.5,1074.8,1881,1083.3,1881,1093.8z"/>
	<path id="Path_73" class="st8" d="M1881,1328.7v74.6h-301.8c-10.5,0-19-8.5-19-19c0,0,0,0,0,0v-55.6H1881z"/>
	<path id="Path_74" class="st9" d="M1881,1328.7v74.6h-301.8c-10.5,0-19-8.5-19-19c0,0,0,0,0,0v-27c-0.5,5.6,2,11,6.5,14.3
		c7.5,4.9,17.6,3.1,22.8-4.2c19.6-26.6,57.1-32.3,83.7-12.7c5.4,4,10.1,8.8,13.8,14.3c3.2,4.6,8.4,7.4,13.9,7.4h133.4
		c10.8,0,19.6-8.8,19.6-19.6v-28H1881z"/>
	<path id="Path_75" class="st10" d="M1673,1403.3c0,19.5-15.8,35.4-35.4,35.4s-35.4-15.8-35.4-35.4c0-19.5,15.8-35.4,35.4-35.4
		c0,0,0,0,0,0C1657.2,1367.9,1673,1383.7,1673,1403.3z"/>
	<path id="Path_76" class="st11" d="M1673,1403.3c0,19.5-15.8,35.4-35.4,35.4c-4.1,0-8.2-0.7-12-2.1c18.4-6.7,27.8-26.9,21.2-45.3
		c-3.6-9.9-11.3-17.6-21.2-21.2c18.4-6.6,38.6,2.9,45.3,21.2C1672.3,1395.1,1673,1399.2,1673,1403.3z"/>
	<path id="Path_77_2_" class="st10" d="M1998.7,1403.3c0,19.5-15.8,35.4-35.4,35.4c-19.5,0-35.4-15.8-35.4-35.4
		c0-19.5,15.8-35.4,35.4-35.4c0,0,0,0,0,0C1982.9,1367.9,1998.7,1383.7,1998.7,1403.3z"/>
	<path id="Path_78" class="st11" d="M1998.7,1403.3c0,19.5-15.8,35.4-35.4,35.4c-4.1,0-8.2-0.7-12-2.1c18.4-6.7,27.8-26.9,21.2-45.3
		c-3.6-9.9-11.3-17.6-21.2-21.2c18.4-6.6,38.6,2.9,45.3,21.2C1998,1395.1,1998.7,1399.2,1998.7,1403.3z"/>
	<path id="Path_79" d="M2019.1,1259.8h-41.5v-112.1c0-14.9-12.1-27-27-27.1h-62.4v-26.9c0-14.5-11.7-26.2-26.2-26.2h-282.8
		c-14.5,0-26.2,11.8-26.2,26.2v11.6c0.1,4,3.4,7.2,7.4,7.1c3.9-0.1,7-3.2,7.1-7.1v-11.6c0-6.5,5.3-11.8,11.8-11.8H1862
		c6.5,0,11.7,5.3,11.8,11.8v227.7h-306.3v-182.2c-0.1-4-3.4-7.2-7.4-7.1c-3.9,0.1-7,3.2-7.1,7.1v245c0,14.5,11.7,26.2,26.2,26.2
		h16.6c4.3,23.1,26.5,38.4,49.6,34.2c17.4-3.2,31-16.8,34.2-34.2h115c4-0.1,7.2-3.4,7.1-7.4c-0.1-3.9-3.2-7-7.1-7.1h-114.8
		c-3.7-23.2-25.6-39-48.8-35.3c-18.1,2.9-32.4,17.1-35.3,35.3h-16.4c-6.5,0-11.8-5.3-11.8-11.8v-48.4h306.3v60.1h-46
		c-4,0.1-7.2,3.4-7.1,7.4c0.1,3.9,3.2,7,7.1,7.1h93.7c4.3,23.1,26.5,38.4,49.6,34.2c17.4-3.2,31-16.8,34.2-34.2h14.2
		c14.9,0,27-12.1,27-27v-96.4C2046.4,1272,2034.2,1259.8,2019.1,1259.8z M1637.7,1374.7c15.5,0,28.1,12.6,28.1,28.1
		c0,15.5-12.6,28.1-28.1,28.1s-28.1-12.6-28.1-28.1l0,0C1609.6,1387.3,1622.2,1374.7,1637.7,1374.7z M1963.3,1430.9
		c-15.5,0-28.1-12.6-28.1-28.1s12.6-28.1,28.1-28.1s28.1,12.6,28.1,28.1l0,0C1991.4,1418.3,1978.9,1430.9,1963.3,1430.9z
		 M2032,1326.3h-19.2c-4-0.1-7.2-3.4-7.1-7.4c0.1-3.9,3.2-7,7.1-7.1h19.2V1326.3z M2032,1297.4h-19.2c-12,0-21.7,9.7-21.7,21.7
		c0,12,9.7,21.7,21.7,21.7h19.2v42.7c0,7-5.6,12.6-12.6,12.6h-14c-3.7-23.2-25.6-39-48.8-35.3c-18.1,2.9-32.4,17.1-35.3,35.3h-33.1
		v-260.9h62.4c7,0,12.6,5.6,12.6,12.6v1.7h-48.4c-4,0-7.2,3.2-7.2,7.2c0,0,0,0,0,0V1267c0,4,3.2,7.2,7.2,7.2c0,0,0,0,0,0h104.3
		c7.1,0,12.8,5.7,12.8,12.8L2032,1297.4L2032,1297.4z M1963.2,1163.9v95.9H1922v-96L1963.2,1163.9z"/>
	<path id="Path_80" d="M1931.5,1297.4h-16.7c-4,0.1-7.2,3.4-7.1,7.4c0.1,3.9,3.2,7,7.1,7.1h16.7c4,0.1,7.3-3.1,7.4-7.1
		c0.1-4-3.1-7.3-7.1-7.4C1931.7,1297.4,1931.6,1297.4,1931.5,1297.4z"/>
	<path id="Path_81" d="M1763,1185.6c4-0.1,7.2-3.4,7.1-7.4c-0.1-3.9-3.2-7-7.1-7.1h-28.9c-4,0-7.2,3.2-7.2,7.2l0,0v57.8
		c0,4,3.2,7.2,7.2,7.2h0h28.9c4-0.1,7.2-3.4,7.1-7.4c-0.1-3.9-3.2-7-7.1-7.1h-21.7v-14.4h21.7c4-0.1,7.2-3.4,7.1-7.4
		c-0.1-3.9-3.2-7-7.1-7.1h-21.7v-14.5H1763z"/>
	<path id="Path_82" d="M1819.8,1185.6c4,0.1,7.3-3.1,7.4-7.1c0.1-4-3.1-7.3-7.1-7.4c-0.1,0-0.2,0-0.3,0h-28.9c-4,0-7.2,3.2-7.2,7.2
		c0,0,0,0,0,0v57.8c0,4,3.2,7.2,7.2,7.2c0,0,0,0,0,0h28.9c4,0.1,7.3-3.1,7.4-7.1c0.1-4-3.1-7.3-7.1-7.4c-0.1,0-0.2,0-0.3,0h-21.7
		v-14.4h21.7c4,0.1,7.3-3.1,7.4-7.1c0.1-4-3.1-7.3-7.1-7.4c-0.1,0-0.2,0-0.3,0h-21.7v-14.5H1819.8z"/>
	<path id="Path_83" d="M1650.2,1185.6c4,0.1,7.3-3.1,7.4-7.1c0.1-4-3.1-7.3-7.1-7.4c-0.1,0-0.2,0-0.3,0h-28.9c-4,0-7.2,3.2-7.2,7.2
		l0,0v57.8c-0.1,4,3.1,7.3,7.1,7.4c4,0.1,7.3-3.1,7.4-7.1c0-0.1,0-0.2,0-0.3v-21.7h21.7c4,0.1,7.3-3.1,7.4-7.1
		c0.1-4-3.1-7.3-7.1-7.4c-0.1,0-0.2,0-0.3,0h-21.7v-14.4H1650.2z"/>
	<path id="Path_84" d="M1713.4,1207.2v-28.9c0-4-3.2-7.2-7.2-7.2c0,0,0,0,0,0h-28.9c-4,0-7.2,3.2-7.2,7.2l0,0v57.8
		c-0.1,4,3.1,7.3,7.1,7.4c4,0.1,7.3-3.1,7.4-7.1c0-0.1,0-0.2,0-0.3v-19.5l15.7,23.5c2.2,3.3,6.7,4.3,10,2.1c3.3-2.2,4.3-6.7,2.1-10
		c0,0,0-0.1-0.1-0.1l-11.8-17.7h5.8C1710.1,1214.5,1713.4,1211.2,1713.4,1207.2z M1698.9,1200h-14.4v-14.4h14.4L1698.9,1200z"/>
</g>
</svg>
