<?xml version="1.0" encoding="utf-8"?>
<!-- Generator: Adobe Illustrator 24.3.0, SVG Export Plug-In . SVG Version: 6.00 Build 0)  -->
<svg version="1.1" id="Layer_1" xmlns="http://www.w3.org/2000/svg" xmlns:xlink="http://www.w3.org/1999/xlink" x="0px" y="0px"
	 viewBox="0 0 512 512" style="enable-background:new 0 0 512 512;" xml:space="preserve">
<style type="text/css">
	.st0{fill:#FFB703;}
	.st1{fill:#007AF6;}
	.st2{fill:#FB8500;}
	.st3{fill:#EAEAE8;}
	.st4{fill:#41B2FF;}
	.st5{fill:#02A437;}
	.st6{fill:#027226;}
	.st7{font-family:'IRANSansWeb';}
	.st8{font-size:66.6911px;}
</style>
<path id="Path_94" class="st0" d="M81.3,112.3H392v281.1H81.3V112.3z"/>
<path id="Path_95" class="st1" d="M273.6,186.3l-37-14.8l-37,14.8v-74h74V186.3z"/>
<path id="Rectangle_34" class="st2" d="M194,217.3h81c8.8,0,15.9,7.1,15.9,15.9l0,0c0,8.8-7.1,15.9-15.9,15.9h-81
	c-8.8,0-15.9-7.1-15.9-15.9l0,0C178.2,224.4,185.3,217.3,194,217.3z"/>
<path id="Path_96" class="st3" d="M110.9,275.1h103.6v88.8H110.9V275.1z"/>
<path id="Path_99" class="st2" d="M81.3,67.9H392v44.4H81.3V67.9z"/>
<path id="Path_100" class="st4" d="M199.7,67.9h74v44.4h-74V67.9z"/>
<ellipse id="Ellipse_11" class="st5" cx="398.4" cy="386.4" rx="72.2" ry="74"/>
<path id="Path_101" class="st6" d="M406.8,356.5h-37c-4.1,0-7.4,3.3-7.4,7.4c0,4.1,3.3,7.4,7.4,7.4h37c8.2,0,14.8,6.6,14.8,14.8
	c0,8.2-6.6,14.8-14.8,14.8h-26.5l2.2-2.2c2.8-3,2.7-7.6-0.3-10.5c-2.9-2.7-7.4-2.7-10.2,0L357.2,403c-2.9,2.9-2.9,7.6,0,10.5
	l14.8,14.8c3,2.8,7.6,2.7,10.5-0.3c2.7-2.9,2.7-7.4,0-10.2l-2.2-2.2h26.5c16.3,0,29.6-13.3,29.6-29.6
	C436.4,369.7,423.1,356.5,406.8,356.5L406.8,356.5z"/>
<path id="Path_102" d="M281,208.5h-88.8c-12.3,0-22.2,9.9-22.2,22.2c0,12.3,9.9,22.2,22.2,22.2h88.8c12.3,0,22.2-9.9,22.2-22.2
	C303.3,218.4,293.3,208.5,281,208.5L281,208.5z M281,238.1h-88.8c-4.1,0-7.4-3.3-7.4-7.4c0-4.1,3.3-7.4,7.4-7.4h88.8
	c4.1,0,7.4,3.3,7.4,7.4C288.4,234.8,285.1,238.1,281,238.1L281,238.1z"/>
<path id="Path_103" d="M214.5,267.7H110.9c-4.1,0-7.4,3.3-7.4,7.4l0,0v88.8c0,4.1,3.3,7.4,7.4,7.4c0,0,0,0,0,0h103.6
	c4.1,0,7.4-3.3,7.4-7.4l0,0v-88.8C221.8,271,218.5,267.7,214.5,267.7z M207.1,356.5h-88.8v-74h88.8L207.1,356.5z"/>
<path id="Path_106" d="M399.4,305V68c0-4.1-3.3-7.4-7.4-7.4l0,0H81.3c-4.1,0-7.4,3.3-7.4,7.4v325.5c0,4.1,3.3,7.4,7.4,7.4h0H312
	c8.2,44.2,50.6,73.4,94.8,65.3c44.2-8.2,73.4-50.6,65.3-94.8C465.4,335.4,435.7,308.3,399.4,305L399.4,305z M281,75.3h103.6v29.6
	H281V75.3z M207,75.3h59.2v29.6H207L207,75.3z M207,119.7h59.2v55.7l-26.8-10.7c-1.8-0.7-3.7-0.7-5.5,0L207,175.4L207,119.7z
	 M88.7,75.3h103.6v29.6H88.7V75.3z M310.6,386.1H88.7V119.7h103.6v66.6c0,4.1,3.3,7.4,7.4,7.4c0.9,0,1.9-0.2,2.7-0.5l34.2-13.7
	l34.2,13.7c3.8,1.5,8.1-0.3,9.6-4.1c0.3-0.9,0.5-1.8,0.5-2.7v-66.6h103.6V305C342.7,308.9,310.7,344,310.6,386.1L310.6,386.1z
	 M392,452.7c-36.8,0-66.6-29.8-66.6-66.6c0-36.8,29.8-66.6,66.6-66.6c36.8,0,66.6,29.8,66.6,66.6v0
	C458.6,422.8,428.8,452.6,392,452.7C392,452.6,392,452.6,392,452.7L392,452.7z"/>
<path id="Path_107" d="M406.8,356.5h-37c-4.1,0-7.4,3.3-7.4,7.4c0,4.1,3.3,7.4,7.4,7.4h37c8.2,0,14.8,6.6,14.8,14.8
	c0,8.2-6.6,14.8-14.8,14.8h-26.5l2.2-2.2c2.8-3,2.7-7.6-0.3-10.5c-2.9-2.7-7.4-2.7-10.2,0L357.2,403c-2.9,2.9-2.9,7.6,0,10.5
	l14.8,14.8c3,2.8,7.6,2.7,10.5-0.3c2.7-2.9,2.7-7.4,0-10.2l-2.2-2.2h26.5c16.3,0,29.6-13.3,29.6-29.6
	C436.4,369.7,423.1,356.5,406.8,356.5L406.8,356.5z"/>
<text transform="matrix(1 0 0 1 142.6357 344.7986)" class="st7 st8">7</text>
</svg>
