<?xml version="1.0" encoding="utf-8"?>
<!-- Generator: Adobe Illustrator 24.3.0, SVG Export Plug-In . SVG Version: 6.00 Build 0)  -->
<svg version="1.1" id="Layer_1" xmlns="http://www.w3.org/2000/svg" xmlns:xlink="http://www.w3.org/1999/xlink" x="0px" y="0px"
	 viewBox="0 0 512 512" style="enable-background:new 0 0 512 512;" xml:space="preserve">
<style type="text/css">
	.st0{fill:#FFB703;}
	.st1{fill:#FB8500;}
</style>
<g id="Group_37" transform="translate(-1219.087 -1096.087)">
	<path id="Path_52" class="st0" d="M1442.4,1503.4h-87.5c-15,0-27.1-12.2-27.1-27.1l0,0v-13.6h-27.1v13.6c0,30,24.3,54.3,54.3,54.3
		c0,0,0,0,0,0h88.2L1442.4,1503.4z"/>
	<path id="Path_53" class="st0" d="M1321,1320.2c0-82.3,63.9-149.3,142.5-149.3c78.6,0,142.5,67,142.5,149.3h27.1
		c0-97.4-76-176.4-169.7-176.4c-93.7,0-169.6,79-169.6,176.4H1321z"/>
	<path id="Path_54" class="st1" d="M1361.7,1327v135.7c0,3.7-3,6.8-6.8,6.8h-61.1c-15,0-27.1-12.1-27.1-27.1c0,0,0,0,0,0v-95
		c0-15,12.1-27.1,27.1-27.1c0,0,0,0,0,0h61.1C1358.6,1320.2,1361.7,1323.2,1361.7,1327z"/>
	<path id="Path_55" class="st1" d="M1660.3,1347.3v95c0,15-12.1,27.1-27.1,27.1c0,0,0,0,0,0H1572c-3.7,0-6.8-3-6.8-6.8V1327
		c0-3.7,3-6.8,6.8-6.8h61.1C1648.1,1320.2,1660.3,1332.3,1660.3,1347.3C1660.3,1347.3,1660.3,1347.3,1660.3,1347.3L1660.3,1347.3z"
		/>
	<path id="Path_56" class="st0" d="M1341.3,1327v135.7c0,3.7-3,6.8-6.8,6.8h-40.7c-15,0-27.1-12.1-27.1-27.1c0,0,0,0,0,0v-95
		c0-15,12.1-27.1,27.1-27.1c0,0,0,0,0,0h40.7C1338.3,1320.2,1341.3,1323.2,1341.3,1327z"/>
	<path id="Path_57" class="st0" d="M1639.9,1347.3v95c0,15-12.1,27.1-27.1,27.1c0,0,0,0,0,0H1572c-3.7,0-6.8-3-6.8-6.8V1327
		c0-3.7,3-6.8,6.8-6.8h40.7C1627.7,1320.2,1639.9,1332.3,1639.9,1347.3C1639.9,1347.3,1639.9,1347.3,1639.9,1347.3L1639.9,1347.3z"
		/>
	<path id="Path_58" class="st1" d="M1429.5,1496.6h61.1c3.7,0,6.8,3,6.8,6.8c0,0,0,0,0,0v27.1c0,3.7-3,6.8-6.8,6.8h-61.1
		c-3.7,0-6.8-3-6.8-6.8v-27.1C1422.8,1499.7,1425.8,1496.6,1429.5,1496.6z"/>
	<path id="Path_59" class="st0" d="M1429.5,1496.6h40.7c3.7,0,6.8,3,6.8,6.8c0,0,0,0,0,0v27.1c0,3.7-3,6.8-6.8,6.8c0,0,0,0,0,0
		h-40.7c-3.7,0-6.8-3-6.8-6.8v-27.1C1422.8,1499.7,1425.8,1496.6,1429.5,1496.6z"/>
	<path id="Path_60" class="st1" d="M1633.1,1320.2h-20.4c0-93.9-70.5-170.7-159.5-176.1c3.4-0.2,6.8-0.3,10.2-0.3
		C1557.2,1143.8,1633.1,1222.7,1633.1,1320.2z"/>
	<path id="Path_61" d="M1639.8,1314.1c-3.1-98.2-81-177.1-176.3-177.1s-173.2,78.9-176.3,177.1c-15.9,3.2-27.3,17.1-27.3,33.3v95
		c0,18.7,15.2,33.9,33.9,33.9c0,33.7,27.4,61,61.1,61.1h63c2.4,4.2,6.9,6.8,11.7,6.8h61.1c7.5,0,13.6-6.1,13.6-13.6v-27.1
		c0-7.5-6.1-13.6-13.6-13.6h-61.1c-4.8,0-9.3,2.6-11.7,6.8h-63c-11.2,0-20.3-9.1-20.4-20.4h20.4c7.5,0,13.6-6.1,13.6-13.6V1327
		c0-7.5-6.1-13.6-13.6-13.6h-26.8c3.4-75.4,62.7-135.7,135.4-135.7s132,60.3,135.4,135.7H1572c-7.5,0-13.6,6.1-13.6,13.6v135.7
		c0,7.5,6.1,13.6,13.6,13.6h61.1c18.7,0,33.9-15.2,33.9-33.9v-95C1667,1331.2,1655.6,1317.3,1639.8,1314.1z M1429.5,1503.4h61.1
		v27.1h-61.1V1503.4z M1354.9,1510.2h61.1v13.6h-61.1c-26.2,0-47.5-21.3-47.5-47.5h13.6C1321,1495,1336.2,1510.2,1354.9,1510.2
		L1354.9,1510.2z M1354.9,1462.7h-61.1c-11.2,0-20.3-9.1-20.4-20.4v-95c0-11.2,9.1-20.3,20.4-20.4h61.1L1354.9,1462.7z
		 M1463.5,1164.1c-80.1,0-145.7,66.4-149.1,149.3h-13.6c3.4-90.4,75.1-162.9,162.7-162.9s159.3,72.5,162.7,162.9h-13.6
		C1609.2,1230.5,1543.6,1164.1,1463.5,1164.1z M1653.5,1442.3c0,11.2-9.1,20.3-20.4,20.4H1572V1327h61.1c11.2,0,20.3,9.1,20.4,20.4
		L1653.5,1442.3z"/>
	<path id="Path_62" d="M1517.8,1442.3c3.7,0,6.8-3,6.8-6.8v-20.4h13.6c3.7,0.1,6.9-2.9,6.9-6.6c0.1-3.7-2.9-6.9-6.6-6.9
		c-0.1,0-0.2,0-0.3,0h-13.6v-17c0.1-3.7-2.9-6.9-6.6-6.9c-3.7-0.1-6.9,2.9-6.9,6.6c0,0.1,0,0.2,0,0.3v17h-28.8l34.5-57.6
		c2-3.2,1.1-7.4-2-9.4c-3.2-2-7.4-1.1-9.4,2c-0.1,0.1-0.1,0.2-0.2,0.3l-40.7,67.9c-1.9,3.2-0.9,7.4,2.3,9.3c1.1,0.6,2.3,1,3.5,1
		h40.7v20.4C1511,1439.3,1514,1442.3,1517.8,1442.3C1517.7,1442.3,1517.8,1442.3,1517.8,1442.3z"/>
	<path id="Path_63" d="M1385.8,1429.5c-3.3,1.7-4.7,5.8-3,9.1c1.2,2.3,3.5,3.7,6.1,3.7h61.1c3.7,0.1,6.9-2.9,6.9-6.6
		c0.1-3.7-2.9-6.9-6.6-6.9c-0.1,0-0.2,0-0.3,0h-37.8c16.8-12.6,37.8-33.8,37.8-61.1c0-18.7-15.2-33.9-33.9-33.9
		c-9.7,0-19,4.2-25.4,11.5c-2.4,2.8-2.1,7.1,0.7,9.6c2.8,2.4,7,2.1,9.5-0.6c7.4-8.4,20.3-9.2,28.7-1.8c4.4,3.9,6.9,9.4,6.9,15.3
		C1436.3,1403.7,1386.3,1429.2,1385.8,1429.5z"/>
</g>
</svg>
