<?xml version="1.0" encoding="utf-8"?>
<!-- Generator: Adobe Illustrator 24.3.0, SVG Export Plug-In . SVG Version: 6.00 Build 0)  -->
<svg version="1.1" id="Layer_1" xmlns="http://www.w3.org/2000/svg" xmlns:xlink="http://www.w3.org/1999/xlink" x="0px" y="0px"
	 viewBox="0 0 512 512" style="enable-background:new 0 0 512 512;" xml:space="preserve">
<style type="text/css">
	.st0{fill:#FFD064;}
	.st1{fill:#FFC250;}
	.st2{fill:#F9F6F6;}
	.st3{fill:#DDDAEC;}
	.st4{fill:#FFB703;}
	.st5{fill:#FB8500;}
	.st6{fill:#00C2F3;}
	.st7{fill:#1E90FF;}
	.st8{fill:#FF7900;}
</style>
<g id="Group_39" transform="translate(-376.053 -981.786)">
	<path id="Path_9" class="st0" d="M793.7,1065.3h-91.6v-40.4c0-4.8,3.9-8.7,8.7-8.7H785c4.8,0,8.7,3.9,8.7,8.7L793.7,1065.3z"/>
	<path id="Path_10" class="st1" d="M785,1016.2h-20c4.8,0,8.7,3.9,8.7,8.7v40.4h19.9v-40.4C793.7,1020.1,789.8,1016.2,785,1016.2
		L785,1016.2z"/>
	<circle id="Ellipse_4" class="st2" cx="747.9" cy="1156.1" r="112.5"/>
	<path id="Path_11" class="st3" d="M747.9,1043.6c-4,0-7.9,0.2-11.9,0.6c61.8,6.6,106.5,62,100,123.8c-5.6,52.7-47.3,94.4-100,100
		c3.9,0.4,7.9,0.6,11.9,0.6c62.1,0,112.5-50.4,112.5-112.5S810,1043.6,747.9,1043.6L747.9,1043.6z"/>
	<path id="Path_12" class="st4" d="M847.8,1395.4H449.3c-3.5,0-6.4-2.9-6.4-6.4l0,0v-180.3c0-5.6,4.6-10.2,10.2-10.2h292
		c5.1,0,10,2.2,13.5,5.9l97.2,106.3c3.1,3.4,4.8,7.7,4.8,12.3v59.7C860.4,1389.7,854.8,1395.4,847.8,1395.4
		C847.8,1395.4,847.8,1395.4,847.8,1395.4z"/>
	<path id="Path_13" class="st5" d="M855.6,1310.7l-97.2-106.3c-3.5-3.8-8.4-5.9-13.5-5.9h-20.8c5.1,0,10,2.2,13.5,5.9l97.2,106.3
		c3.1,3.4,4.8,7.7,4.8,12.3v59.8c0,7-5.6,12.6-12.6,12.6h20.8c7,0,12.6-5.6,12.6-12.6V1323C860.4,1318.5,858.7,1314.1,855.6,1310.7z
		"/>
	<path id="Path_14" class="st6" d="M758.5,1204.4c-3.5-3.8-8.4-5.9-13.5-5.9h-39.2v91.3c0,4,3.2,7.2,7.2,7.2H843L758.5,1204.4z"/>
	<path id="Path_15" class="st7" d="M737.7,1204.4l84.5,92.5H843l-84.5-92.5c-3.5-3.8-8.4-5.9-13.5-5.9h-20.8
		C729.3,1198.5,734.2,1200.6,737.7,1204.4z"/>
	<circle id="Ellipse_5" class="st8" cx="779" cy="1398.1" r="47.3"/>
	<path id="Path_16" class="st4" d="M779,1350.7c-2.6,0-5.3,0.2-7.9,0.7c25.8,4.3,43.2,28.8,38.8,54.5c-3.3,19.9-18.9,35.5-38.8,38.8
		c25.8,4.3,50.2-13,54.5-38.8c4.3-25.8-13-50.2-38.8-54.5C784.3,1351,781.6,1350.7,779,1350.7z"/>
	<circle id="Ellipse_6" class="st2" cx="779" cy="1398.1" r="15.7"/>
	<path id="Path_17" class="st3" d="M779,1382.3c-2.2,0-4.4,0.5-6.4,1.4c7.9,3.5,11.5,12.8,7.9,20.8c-1.6,3.5-4.4,6.4-7.9,7.9
		c7.9,3.5,17.2,0,20.8-7.9s0-17.2-7.9-20.8C783.4,1382.8,781.2,1382.3,779,1382.3z"/>
	<circle id="Ellipse_7" class="st8" cx="543.2" cy="1398.1" r="47.3"/>
	<path id="Path_18" class="st4" d="M543.2,1350.7c-2.6,0-5.3,0.2-7.9,0.7c25.8,4.3,43.2,28.8,38.8,54.5
		c-3.3,19.9-18.9,35.5-38.8,38.8c25.8,4.3,50.2-13,54.5-38.8c4.3-25.8-13-50.2-38.8-54.5C548.5,1351,545.8,1350.7,543.2,1350.7z"/>
	<circle id="Ellipse_8" class="st2" cx="543.2" cy="1398.1" r="15.7"/>
	<path id="Path_19" class="st3" d="M543.2,1382.3c-2.2,0-4.4,0.5-6.4,1.4c7.9,3.5,11.5,12.8,7.9,20.8c-1.6,3.5-4.4,6.4-7.9,7.9
		c7.9,3.5,17.2,0,20.8-7.9s0-17.2-7.9-20.8C547.6,1382.8,545.4,1382.3,543.2,1382.3z"/>
	<g id="Group_22" transform="translate(414.701 1043.11)">
		<g id="Group_21" transform="translate(0 0)">
			<g id="Group_20">
				<path id="Path_20" class="st2" d="M114,269.6l-5.5-5.7l33.6-32.7l-33.6-32.7l5.5-5.7c7.6-7.8,20.2-8,28-0.4l29.4,28.7
					c1.5,1.5,2.7,3.3,3.5,5.3c1.9,5.1,0.6,10.9-3.3,14.7L142,270C134.2,277.6,121.7,277.5,114,269.6C114,269.6,114,269.6,114,269.6z
					"/>
			</g>
		</g>
	</g>
	<g id="Group_23" transform="translate(376.053 981.786)">
		<path id="Path_21" d="M371.9,104.3c3.9,0,7.1-3.2,7.1-7.1v0v-9.5c0-3.9-3.2-7.1-7.1-7.1s-7.1,3.2-7.1,7.1l0,0v9.5
			C364.8,101.2,367.9,104.3,371.9,104.3C371.9,104.3,371.9,104.3,371.9,104.3z"/>
		<path id="Path_22" d="M448.9,167.2c-3.9,0-7.1,3.2-7.1,7.1s3.2,7.1,7.1,7.1h9.5c3.9,0,7.1-3.2,7.1-7.1s-3.2-7.1-7.1-7.1H448.9z"/>
		<path id="Path_23" d="M285.3,167.2c-3.9,0-7.1,3.2-7.1,7.1s3.2,7.1,7.1,7.1h9.5c3.9,0,7.1-3.2,7.1-7.1s-3.2-7.1-7.1-7.1H285.3z"/>
		<path id="Path_24" d="M402.9,393.5c-12.6,0-22.8,10.2-22.8,22.8s10.2,22.8,22.8,22.8c12.6,0,22.8-10.2,22.8-22.8
			C425.7,403.7,415.5,393.5,402.9,393.5z M402.9,424.9c-4.8,0-8.6-3.9-8.6-8.6c0-4.8,3.9-8.6,8.6-8.6c4.8,0,8.6,3.9,8.6,8.6l0,0
			C411.6,421.1,407.7,424.9,402.9,424.9z"/>
		<path id="Path_25" d="M144.3,416.3c0,12.6,10.2,22.8,22.8,22.8c12.6,0,22.8-10.2,22.8-22.8s-10.2-22.8-22.8-22.8
			C154.5,393.5,144.3,403.7,144.3,416.3z M175.8,416.3c0,4.8-3.9,8.6-8.6,8.6c-4.8,0-8.6-3.9-8.6-8.6c0-4.8,3.9-8.6,8.6-8.6h0
			C171.9,407.6,175.8,411.5,175.8,416.3L175.8,416.3L175.8,416.3z"/>
		<path id="Path_26" d="M215.2,307.6c8.3-8.1,8.5-21.3,0.4-29.6c-0.2-0.2-0.4-0.4-0.5-0.5l-29.4-28.7c-10.6-10.3-27.6-10.1-38,0.5
			l-5.5,5.7c-2.7,2.8-2.7,7.3,0.1,10l28.4,27.6l-28.4,27.6c-2.8,2.7-2.9,7.2-0.1,10l5.5,5.7c10.3,10.6,27.4,10.9,38,0.5c0,0,0,0,0,0
			L215.2,307.6z M157.8,326l-0.6-0.6l28.5-27.7c2.8-2.7,2.9-7.2,0.1-10c0,0-0.1-0.1-0.1-0.1l-28.5-27.7l0.6-0.6
			c4.9-5,12.9-5.1,18-0.2l29.4,28.7c2.8,2.5,3,6.8,0.5,9.5c-0.1,0.1-0.2,0.2-0.3,0.3l-29.6,28.8C170.7,331.2,162.7,331.1,157.8,326
			C157.8,326,157.8,326,157.8,326L157.8,326z"/>
		<path id="Path_27" d="M364.8,174.3c0,3.9,3.2,7.1,7.1,7.1l0,0H396c3.9,0,7.1-3.2,7.1-7.1s-3.2-7.1-7.1-7.1h-17v-44.1
			c0-3.9-3.2-7.1-7.1-7.1c-3.9,0-7.1,3.2-7.1,7.1l0,0V174.3z"/>
		<path id="Path_28" d="M128.9,113.8h122c3.9,0,7.1-3.2,7.1-7.1s-3.2-7.1-7.1-7.1c0,0,0,0,0,0h-122c-3.9,0-7.1,3.2-7.1,7.1
			C121.8,110.6,125,113.8,128.9,113.8z"/>
		<path id="Path_29" d="M99.4,150.4H226c3.9,0,7.1-3.2,7.1-7.1c0-3.9-3.2-7.1-7.1-7.1H99.4c-3.9,0-7.1,3.2-7.1,7.1
			C92.3,147.2,95.4,150.4,99.4,150.4L99.4,150.4z"/>
		<path id="Path_30" d="M171.8,168.8c-3.9,0-7.1,3.2-7.1,7.1c0,3.9,3.2,7.1,7.1,7.1h63c3.9,0,7.1-3.2,7.1-7.1c0-3.9-3.2-7.1-7.1-7.1
			H171.8z"/>
		<path id="Path_31" d="M112.1,168.8c-3.9,0-7.1,3.2-7.1,7.1c0,3.9,3.2,7.1,7.1,7.1h31.4c3.9,0,7.1-3.2,7.1-7.1
			c0-3.9-3.2-7.1-7.1-7.1H112.1z"/>
		<path id="Path_32" d="M15,280.5h25.9c3.9,0,7.1-3.2,7.1-7.1c0-3.9-3.2-7.1-7.1-7.1H15c-3.9,0-7.1,3.2-7.1,7.1
			C7.9,277.4,11.1,280.5,15,280.5z"/>
		<path id="Path_33" d="M33.9,342.9H15c-3.9,0-7.1,3.2-7.1,7.1s3.2,7.1,7.1,7.1h18.9c3.9,0,7.1-3.2,7.1-7.1S37.8,342.9,33.9,342.9z"
			/>
		<path id="Path_34" d="M117.2,283H92c-3.9,0-7.1,3.2-7.1,7.1c0,3.9,3.2,7.1,7.1,7.1h25.3c3.9,0,7.1-3.2,7.1-7.1
			C124.3,286.1,121.1,283,117.2,283z"/>
		<path id="Path_35" d="M438.6,273.6c33-22.3,52.8-59.4,52.9-99.2c0.1-18.7-4.3-37.2-12.8-53.9c-1.8-3.5-6.1-4.8-9.6-2.9
			c-3.3,1.8-4.7,5.9-3.1,9.3c7.5,14.7,11.3,31,11.3,47.5c-0.1,35.8-18.3,69.2-48.4,88.7l-41.2-45.1c-4.8-5.3-11.6-8.2-18.7-8.3
			h-96.4C253,154.7,281.7,94.5,336.6,75c40.5-14.4,85.7-2.7,114.2,29.5c2.6,3,7,3.3,10,0.7c3-2.6,3.3-7,0.7-10c0,0-0.1-0.1-0.1-0.1
			c-10.3-11.6-22.8-21.1-36.7-28v-24c0-8.7-7.1-15.8-15.8-15.8h-74.1c-8.7,0-15.8,7.1-15.8,15.8v24c-52.7,26-78.7,86.4-61.4,142.5
			H77c-9,0-16.4,6.9-17.2,15.9H33.9c-3.9,0-7.1,3.2-7.1,7.1c0,3.9,3.2,7.1,7.1,7.1c0,0,0,0,0,0h25.8v68.5H15c-3.9,0-7.1,3.2-7.1,7.1
			c0,3.9,3.2,7.1,7.1,7.1h44.7v20.7c-3.9,0-7.1,3.2-7.1,7.1s3.2,7.1,7.1,7.1v50.1c0,7.4,6,13.5,13.5,13.5h19.1v4.9H70.2
			c-3.9,0-7.1,3.2-7.1,7.1c0,3.9,3.2,7.1,7.1,7.1h29.2c3.9,0,7.1-3.2,7.1-7.1l0,0v-12h6.5c2.4,29.9,28.7,52.3,58.6,49.8
			c7.9-0.6,15.6-3,22.5-6.9c3.4-1.9,4.6-6.3,2.7-9.7c-1.9-3.4-6.3-4.6-9.7-2.7l0,0c-19.3,10.9-43.8,4.2-54.8-15.1
			c-10.9-19.3-4.2-43.8,15.1-54.8c19.3-10.9,43.8-4.2,54.8,15.1c6.5,11.4,7,25.2,1.3,37.1c-1.6,3.6-0.1,7.8,3.5,9.4
			c3.5,1.6,7.6,0.1,9.3-3.3c2.8-6,4.6-12.4,5.1-19h127.3c2.4,29.9,28.7,52.2,58.6,49.8c26.6-2.2,47.6-23.2,49.8-49.8h14.6
			c10.9,0,19.7-8.8,19.7-19.7v-59.7c0-6.3-2.4-12.4-6.6-17.1L438.6,273.6z M333.2,43.1c0-0.9,0.7-1.6,1.6-1.6l0,0h74.1
			c0.9,0,1.6,0.7,1.6,1.6l0,0v18.1c-25.1-8.6-52.3-8.6-77.4,0V43.1z M377.2,227.4l73.7,80.7h-52.8c-3.9,0-7.1,3.2-7.1,7.1
			c0,3.9,3.2,7.1,7.1,7.1h65.8l10.5,11.5c4.3,4.7,2.5,9.8,2.9,15.2h-5.5c-3.9,0-7.1,3.2-7.1,7.1c0,3.9,3.2,7.1,7.1,7.1c0,0,0,0,0,0
			h5.5v10.5h-40.7c-19.7-15.6-47.6-15.6-67.3,0h-77.2V223.8h30.5V308c0,7.9,6.4,14.2,14.3,14.3h32.8c3.9,0,7.1-3.2,7.1-7.1
			c0-3.9-3.2-7.1-7.1-7.1c0,0,0,0,0,0h-32.8c0,0-0.1,0-0.1-0.1l0,0v-84.2h32.1C372.1,223.8,375.1,225.1,377.2,227.4L377.2,227.4z
			 M349.4,406.5h-57.3v-18.8h64.5C353.1,393.5,350.6,399.9,349.4,406.5z M213.4,387.7H278v18.8h-57.3
			C219.5,399.9,217,393.5,213.4,387.7L213.4,387.7z M73.9,387.7h46.9c-3.6,5.8-6,12.1-7.2,18.8H73.9L73.9,387.7z M133.5,373.6H73.9
			v-16.5h30.7c3.9,0,7.1-3.2,7.1-7.1c0-3.9-3.2-7.1-7.1-7.1c0,0,0,0,0,0H73.9v-20.7h30.7c3.9,0,7.1-3.2,7.1-7.1s-3.2-7.1-7.1-7.1
			c0,0,0,0,0,0H73.9v-81.2c0-1.7,1.4-3.1,3.1-3.1h201v149.8h-77.2C181.1,358,153.2,358,133.5,373.6z M402.9,456.5
			c-22.2,0-40.3-18-40.3-40.3c0-22.2,18-40.3,40.3-40.3c22.2,0,40.3,18,40.3,40.3l0,0C443.2,438.5,425.2,456.5,402.9,456.5z
			 M471.7,406.5h-15.3c-1.2-6.7-3.7-13-7.2-18.8h28.1V401C477.3,404,474.8,406.5,471.7,406.5C471.7,406.5,471.7,406.5,471.7,406.5
			L471.7,406.5z"/>
	</g>
</g>
</svg>
